<?xml version="1.0" encoding="UTF-8" standalone="no"?>
<svg
   xmlns:osb="http://www.openswatchbook.org/uri/2009/osb"
   xmlns:dc="http://purl.org/dc/elements/1.1/"
   xmlns:cc="http://creativecommons.org/ns#"
   xmlns:rdf="http://www.w3.org/1999/02/22-rdf-syntax-ns#"
   xmlns:svg="http://www.w3.org/2000/svg"
   xmlns="http://www.w3.org/2000/svg"
   xmlns:xlink="http://www.w3.org/1999/xlink"
   xmlns:sodipodi="http://sodipodi.sourceforge.net/DTD/sodipodi-0.dtd"
   xmlns:inkscape="http://www.inkscape.org/namespaces/inkscape"
   width="1280"
   height="640"
   viewBox="0 0 338.66666 169.33333"
   version="1.1"
   id="svg8"
   sodipodi:docname="combined-social.svg"
   inkscape:version="1.0.2 (e86c870879, 2021-01-15)">
  <sodipodi:namedview
     pagecolor="#ffffff"
     bordercolor="#666666"
     borderopacity="1"
     objecttolerance="10"
     gridtolerance="10"
     guidetolerance="10"
     inkscape:pageopacity="0"
     inkscape:pageshadow="2"
     inkscape:window-width="2014"
     inkscape:window-height="1186"
     id="namedview16"
     showgrid="false"
     inkscape:zoom="1.0127489"
     inkscape:cx="477.76703"
     inkscape:cy="114.03198"
     inkscape:window-x="3101"
     inkscape:window-y="58"
     inkscape:window-maximized="0"
     inkscape:current-layer="svg8" />
  <defs
     id="defs2">
    <linearGradient
       id="linearGradient2791">
      <stop
         style="stop-color:#ffffff;stop-opacity:1;"
         offset="0"
         id="stop2787" />
      <stop
         style="stop-color:#ffffff;stop-opacity:0;"
         offset="1"
         id="stop2789" />
    </linearGradient>
    <linearGradient
       id="linearGradient2779"
       osb:paint="solid">
      <stop
         style="stop-color:#000000;stop-opacity:1;"
         offset="0"
         id="stop2777" />
    </linearGradient>
    <linearGradient
       xlink:href="#linearGradient2791"
       id="linearGradient2793"
       x1="161.37006"
       y1="62.608173"
       x2="222.52374"
       y2="62.608173"
       gradientUnits="userSpaceOnUse" />
  </defs>
  <metadata
     id="metadata5">
    <rdf:RDF>
      <cc:Work
         rdf:about="">
        <dc:format>image/svg+xml</dc:format>
        <dc:type
           rdf:resource="http://purl.org/dc/dcmitype/StillImage" />
        <dc:title></dc:title>
      </cc:Work>
    </rdf:RDF>
  </metadata>
  <g
     id="layer1"
     transform="translate(-2e-6,-5.6910664)">
    <g
       aria-label="{ P : { 0 } }"
       id="text835"
       style="font-style:normal;font-weight:normal;font-size:34.1206px;line-height:1.25;font-family:sans-serif;fill:#ffffff;fill-opacity:1;stroke:#000000;stroke-width:1.17675;stroke-miterlimit:4;stroke-dasharray:none;stroke-opacity:1">
      <path
         d="m 83.931864,77.306316 v 2.399105 h -1.032948 q -4.148452,0 -5.56459,-1.232873 -1.399478,-1.232873 -1.399478,-4.914833 v -3.981847 q 0,-2.515728 -0.899664,-3.482034 -0.899665,-0.966306 -3.265449,-0.966306 h -1.016287 v -2.382445 h 1.016287 q 2.382445,0 3.265449,-0.949645 0.899664,-0.966307 0.899664,-3.448714 v -3.998508 q 0,-3.681959 1.399478,-4.898172 1.416138,-1.232873 5.56459,-1.232873 h 1.032948 v 2.382444 h -1.132911 q -2.349123,0 -3.065522,0.73306 -0.7164,0.73306 -0.7164,3.082183 v 4.131792 q 0,2.61569 -0.76638,3.798582 -0.749721,1.182892 -2.58237,1.599404 1.84931,0.449832 2.59903,1.632724 0.74972,1.182892 0.74972,3.781922 v 4.131791 q 0,2.349124 0.7164,3.082184 0.716399,0.733059 3.065522,0.733059 z"
         style="fill:#ffffff;fill-opacity:1;stroke:#000000;stroke-width:1.17675;stroke-miterlimit:4;stroke-dasharray:none;stroke-opacity:1"
         id="path941" />
      <path
         d="m 105.75705,52.032414 v 9.346512 h 4.23176 q 2.34912,0 3.63198,-1.216213 1.28285,-1.216212 1.28285,-3.465373 0,-2.2325 -1.28285,-3.448713 -1.28286,-1.216213 -3.63198,-1.216213 z m -3.36541,-2.765635 h 7.59717 q 4.18177,0 6.31431,1.899291 2.1492,1.882631 2.1492,5.53127 0,3.681959 -2.1492,5.56459 -2.13254,1.882631 -6.31431,1.882631 h -4.23176 v 9.99627 h -3.36541 z"
         style="fill:#ffffff;fill-opacity:1;stroke:#000000;stroke-width:1.17675;stroke-miterlimit:4;stroke-dasharray:none;stroke-opacity:1"
         id="path943" />
      <path
         d="m 134.46301,69.909077 h 3.51535 v 4.231754 h -3.51535 z m 0,-13.411663 h 3.51535 v 4.231755 h -3.51535 z"
         style="fill:#ffffff;fill-opacity:1;stroke:#000000;stroke-width:1.17675;stroke-miterlimit:4;stroke-dasharray:none;stroke-opacity:1"
         id="path945" />
      <path
         d="m 170.24966,77.306316 v 2.399105 h -1.03295 q -4.14845,0 -5.56459,-1.232873 -1.39948,-1.232873 -1.39948,-4.914833 v -3.981847 q 0,-2.515728 -0.89966,-3.482034 -0.89967,-0.966306 -3.26545,-0.966306 h -1.01629 v -2.382445 h 1.01629 q 2.38244,0 3.26545,-0.949645 0.89966,-0.966307 0.89966,-3.448714 v -3.998508 q 0,-3.681959 1.39948,-4.898172 1.41614,-1.232873 5.56459,-1.232873 h 1.03295 v 2.382444 h -1.13291 q -2.34913,0 -3.06552,0.73306 -0.7164,0.73306 -0.7164,3.082183 v 4.131792 q 0,2.61569 -0.76638,3.798582 -0.74972,1.182892 -2.58237,1.599404 1.84931,0.449832 2.59903,1.632724 0.74972,1.182892 0.74972,3.781922 v 4.131791 q 0,2.349124 0.7164,3.082184 0.71639,0.733059 3.06552,0.733059 z"
         style="fill:#ffffff;fill-opacity:1;stroke:#000000;stroke-width:1.17675;stroke-miterlimit:4;stroke-dasharray:none;stroke-opacity:1"
         id="path947" />
      <path
         d="m 196.20664,51.482619 q -2.59903,0 -3.91521,2.565709 -1.29951,2.549049 -1.29951,7.680468 0,5.114758 1.29951,7.680467 1.31618,2.549049 3.91521,2.549049 2.61569,0 3.91521,-2.549049 1.31617,-2.565709 1.31617,-7.680467 0,-5.131419 -1.31617,-7.680468 -1.29952,-2.565709 -3.91521,-2.565709 z m 0,-2.665672 q 4.18177,0 6.38095,3.31543 2.21584,3.298769 2.21584,9.596419 0,6.280989 -2.21584,9.596419 -2.19918,3.298769 -6.38095,3.298769 -4.18177,0 -6.39761,-3.298769 -2.19918,-3.31543 -2.19918,-9.596419 0,-6.29765 2.19918,-9.596419 2.21584,-3.31543 6.39761,-3.31543 z"
         style="fill:#ffffff;fill-opacity:1;stroke:#000000;stroke-width:1.17675;stroke-miterlimit:4;stroke-dasharray:none;stroke-opacity:1"
         id="path949" />
      <path
         d="m 222.18028,77.306316 h 1.16623 q 2.33247,0 3.03221,-0.716399 0.71639,-0.716399 0.71639,-3.098844 v -4.131791 q 0,-2.59903 0.74973,-3.781922 0.74972,-1.182892 2.59903,-1.632724 -1.84931,-0.416512 -2.59903,-1.599404 -0.74973,-1.182892 -0.74973,-3.798582 v -4.131792 q 0,-2.365784 -0.71639,-3.082183 -0.69974,-0.73306 -3.03221,-0.73306 h -1.16623 v -2.382444 h 1.04961 q 4.14845,0 5.53127,1.232873 1.39948,1.216213 1.39948,4.898172 v 3.998508 q 0,2.482407 0.89966,3.448714 0.89967,0.949645 3.26545,0.949645 h 1.03295 v 2.382445 h -1.03295 q -2.36578,0 -3.26545,0.966306 -0.89966,0.966306 -0.89966,3.482034 v 3.981847 q 0,3.68196 -1.39948,4.914833 -1.38282,1.232873 -5.53127,1.232873 h -1.04961 z"
         style="fill:#ffffff;fill-opacity:1;stroke:#000000;stroke-width:1.17675;stroke-miterlimit:4;stroke-dasharray:none;stroke-opacity:1"
         id="path951" />
      <path
         d="m 254.7348,77.306316 h 1.16623 q 2.33247,0 3.03221,-0.716399 0.71639,-0.716399 0.71639,-3.098844 v -4.131791 q 0,-2.59903 0.74972,-3.781922 0.74973,-1.182892 2.59903,-1.632724 -1.8493,-0.416512 -2.59903,-1.599404 -0.74972,-1.182892 -0.74972,-3.798582 v -4.131792 q 0,-2.365784 -0.71639,-3.082183 -0.69974,-0.73306 -3.03221,-0.73306 h -1.16623 v -2.382444 h 1.04961 q 4.14845,0 5.53127,1.232873 1.39948,1.216213 1.39948,4.898172 v 3.998508 q 0,2.482407 0.89966,3.448714 0.89967,0.949645 3.26545,0.949645 h 1.03295 v 2.382445 h -1.03295 q -2.36578,0 -3.26545,0.966306 -0.89966,0.966306 -0.89966,3.482034 v 3.981847 q 0,3.68196 -1.39948,4.914833 -1.38282,1.232873 -5.53127,1.232873 h -1.04961 z"
         style="fill:#ffffff;fill-opacity:1;stroke:#000000;stroke-width:1.17675;stroke-miterlimit:4;stroke-dasharray:none;stroke-opacity:1"
         id="path953" />
    </g>
    <g
       aria-label="P-Computation"
       id="text835-4"
       style="font-style:normal;font-weight:normal;font-size:41.5981px;line-height:1.25;font-family:sans-serif;fill:#ffffff;fill-opacity:1;stroke:#000000;stroke-width:1.43464;stroke-miterlimit:4;stroke-dasharray:none;stroke-opacity:1">
      <path
         d="m 23.018932,115.60947 v 11.39479 h 5.159139 q 2.863931,0 4.427923,-1.48274 1.563991,-1.48275 1.563991,-4.22481 0,-2.72175 -1.563991,-4.20449 -1.563992,-1.48275 -4.427923,-1.48275 z m -4.102938,-3.37172 h 9.262077 q 5.098204,0 7.698086,2.31552 2.620192,2.29521 2.620192,6.74344 0,4.48886 -2.620192,6.78407 -2.599882,2.2952 -7.698086,2.2952 h -5.159139 v 12.18695 h -4.102938 z"
         style="fill:#ffffff;fill-opacity:1;stroke:#000000;stroke-width:1.43464;stroke-miterlimit:4;stroke-dasharray:none;stroke-opacity:1"
         id="path914" />
      <path
         d="m 41.035296,129.50259 h 10.947937 v 3.33109 H 41.035296 Z"
         style="fill:#ffffff;fill-opacity:1;stroke:#000000;stroke-width:1.43464;stroke-miterlimit:4;stroke-dasharray:none;stroke-opacity:1"
         id="path916" />
      <path
         d="m 80.805354,114.57358 v 4.32637 q -2.07178,-1.9296 -4.427923,-2.88425 -2.33583,-0.95464 -4.976335,-0.95464 -5.199762,0 -7.962136,3.18892 -2.762374,3.1686 -2.762374,9.18083 0,5.99191 2.762374,9.18083 2.762374,3.1686 7.962136,3.1686 2.640505,0 4.976335,-0.95464 2.356143,-0.95465 4.427923,-2.88425 v 4.28575 q -2.153027,1.46243 -4.570104,2.19365 -2.396765,0.73121 -5.077893,0.73121 -6.885622,0 -10.846379,-4.20449 -3.960756,-4.22481 -3.960756,-11.51666 0,-7.31217 3.960756,-11.51666 3.960757,-4.22481 10.846379,-4.22481 2.721751,0 5.118516,0.73121 2.417078,0.71091 4.529481,2.15303 z"
         style="fill:#ffffff;fill-opacity:1;stroke:#000000;stroke-width:1.43464;stroke-miterlimit:4;stroke-dasharray:none;stroke-opacity:1"
         id="path918" />
      <path
         d="m 95.795294,122.43416 q -3.006113,0 -4.752908,2.35614 -1.746795,2.33583 -1.746795,6.41846 0,4.08262 1.726484,6.43877 1.746795,2.33583 4.773219,2.33583 2.985801,0 4.732596,-2.35614 1.7468,-2.35615 1.7468,-6.41846 0,-4.042 -1.7468,-6.39815 -1.746795,-2.37645 -4.732596,-2.37645 z m 0,-3.16861 q 4.874776,0 7.657466,3.16861 2.78268,3.1686 2.78268,8.7746 0,5.58568 -2.78268,8.7746 -2.78269,3.1686 -7.657466,3.1686 -4.895089,0 -7.677774,-3.1686 -2.762374,-3.18892 -2.762374,-8.7746 0,-5.606 2.762374,-8.7746 2.782685,-3.16861 7.677774,-3.16861 z"
         style="fill:#ffffff;fill-opacity:1;stroke:#000000;stroke-width:1.43464;stroke-miterlimit:4;stroke-dasharray:none;stroke-opacity:1"
         id="path920" />
      <path
         d="m 130.14216,124.18095 q 1.4015,-2.51863 3.35141,-3.71701 1.94991,-1.19839 4.59042,-1.19839 3.55452,0 5.48412,2.49833 1.9296,2.47801 1.9296,7.06842 v 13.73063 h -3.75764 v -13.60876 q 0,-3.27016 -1.15776,-4.85446 -1.15776,-1.5843 -3.53421,-1.5843 -2.90456,0 -4.59042,1.9296 -1.68586,1.92959 -1.68586,5.26069 v 12.85723 h -3.75764 v -13.60876 q 0,-3.29047 -1.15776,-4.85446 -1.15776,-1.5843 -3.57483,-1.5843 -2.86394,0 -4.5498,1.94991 -1.68586,1.9296 -1.68586,5.24038 v 12.85723 h -3.75764 v -22.74896 h 3.75764 v 3.53421 q 1.27963,-2.09209 3.06705,-3.08736 1.78742,-0.99527 4.24512,-0.99527 2.47801,0 4.20449,1.25932 1.7468,1.25932 2.57957,3.65608 z"
         style="fill:#ffffff;fill-opacity:1;stroke:#000000;stroke-width:1.43464;stroke-miterlimit:4;stroke-dasharray:none;stroke-opacity:1"
         id="path922" />
      <path
         d="m 156.56751,139.15058 v 12.06508 h -3.75764 v -31.40169 h 3.75764 v 3.45296 q 1.17807,-2.03115 2.96549,-3.00611 1.80773,-0.99527 4.30605,-0.99527 4.14356,0 6.72313,3.29048 2.59988,3.29047 2.59988,8.65273 0,5.36225 -2.59988,8.65273 -2.57957,3.29047 -6.72313,3.29047 -2.49832,0 -4.30605,-0.97495 -1.78742,-0.99527 -2.96549,-3.02643 z m 12.71504,-7.94182 q 0,-4.12325 -1.70617,-6.45908 -1.68586,-2.35614 -4.65135,-2.35614 -2.96549,0 -4.67166,2.35614 -1.68586,2.33583 -1.68586,6.45908 0,4.12325 1.68586,6.47939 1.70617,2.33583 4.67166,2.33583 2.96549,0 4.65135,-2.33583 1.70617,-2.35614 1.70617,-6.47939 z"
         style="fill:#ffffff;fill-opacity:1;stroke:#000000;stroke-width:1.43464;stroke-miterlimit:4;stroke-dasharray:none;stroke-opacity:1"
         id="path924" />
      <path
         d="m 178.97117,133.58521 v -13.77124 h 3.73733 v 13.62906 q 0,3.22954 1.25932,4.85447 1.25932,1.60461 3.77795,1.60461 3.02643,0 4.77322,-1.9296 1.76711,-1.9296 1.76711,-5.2607 v -12.89784 h 3.73733 v 22.74896 h -3.73733 v -3.49359 q -1.36088,2.07178 -3.16861,3.08736 -1.78741,0.99526 -4.16387,0.99526 -3.92013,0 -5.95129,-2.43739 -2.03116,-2.43738 -2.03116,-7.12936 z m 9.40426,-14.31966 z"
         style="fill:#ffffff;fill-opacity:1;stroke:#000000;stroke-width:1.43464;stroke-miterlimit:4;stroke-dasharray:none;stroke-opacity:1"
         id="path926" />
      <path
         d="m 209.41823,113.35489 v 6.45908 h 7.69808 v 2.90455 h -7.69808 v 12.34944 q 0,2.78268 0.75152,3.57483 0.77184,0.79216 3.10767,0.79216 h 3.83889 v 3.12798 h -3.83889 q -4.32636,0 -5.9716,-1.60462 -1.64524,-1.62492 -1.64524,-5.89035 v -12.34944 h -2.74206 v -2.90455 h 2.74206 v -6.45908 z"
         style="fill:#ffffff;fill-opacity:1;stroke:#000000;stroke-width:1.43464;stroke-miterlimit:4;stroke-dasharray:none;stroke-opacity:1"
         id="path928" />
      <path
         d="m 232.37031,131.12751 q -4.52949,0 -6.27628,1.03589 -1.7468,1.03589 -1.7468,3.53422 0,1.99053 1.29994,3.1686 1.32026,1.15776 3.57484,1.15776 3.10767,0 4.97634,-2.19365 1.88897,-2.21396 1.88897,-5.87004 v -0.83278 z m 7.45434,-1.54368 v 12.9791 h -3.73733 v -3.45297 q -1.27963,2.07178 -3.18891,3.06705 -1.90929,0.97495 -4.67167,0.97495 -3.49359,0 -5.56537,-1.94991 -2.05146,-1.97022 -2.05146,-5.2607 0,-3.83888 2.55925,-5.78879 2.57957,-1.94991 7.67778,-1.94991 h 5.24038 v -0.36561 q 0,-2.57957 -1.70617,-3.98107 -1.68586,-1.42181 -4.75291,-1.42181 -1.94991,0 -3.79826,0.46717 -1.84835,0.46716 -3.55453,1.40149 v -3.45296 q 2.05147,-0.79215 3.98107,-1.17807 1.9296,-0.40624 3.75764,-0.40624 4.93571,0 7.3731,2.55926 2.43739,2.55926 2.43739,7.75902 z"
         style="fill:#ffffff;fill-opacity:1;stroke:#000000;stroke-width:1.43464;stroke-miterlimit:4;stroke-dasharray:none;stroke-opacity:1"
         id="path930" />
      <path
         d="m 251.21943,113.35489 v 6.45908 h 7.69809 v 2.90455 h -7.69809 v 12.34944 q 0,2.78268 0.75153,3.57483 0.77184,0.79216 3.10767,0.79216 h 3.83889 v 3.12798 h -3.83889 q -4.32636,0 -5.9716,-1.60462 -1.64524,-1.62492 -1.64524,-5.89035 v -12.34944 h -2.74206 v -2.90455 h 2.74206 v -6.45908 z"
         style="fill:#ffffff;fill-opacity:1;stroke:#000000;stroke-width:1.43464;stroke-miterlimit:4;stroke-dasharray:none;stroke-opacity:1"
         id="path932" />
      <path
         d="m 263.83292,119.81397 h 3.73733 v 22.74896 h -3.73733 z m 0,-8.85585 h 3.73733 v 4.7326 h -3.73733 z"
         style="fill:#ffffff;fill-opacity:1;stroke:#000000;stroke-width:1.43464;stroke-miterlimit:4;stroke-dasharray:none;stroke-opacity:1"
         id="path934" />
      <path
         d="m 284.20544,122.43416 q -3.00611,0 -4.75291,2.35614 -1.74679,2.33583 -1.74679,6.41846 0,4.08262 1.72648,6.43877 1.7468,2.33583 4.77322,2.33583 2.9858,0 4.7326,-2.35614 1.74679,-2.35615 1.74679,-6.41846 0,-4.042 -1.74679,-6.39815 -1.7468,-2.37645 -4.7326,-2.37645 z m 0,-3.16861 q 4.87478,0 7.65746,3.16861 2.78269,3.1686 2.78269,8.7746 0,5.58568 -2.78269,8.7746 -2.78268,3.1686 -7.65746,3.1686 -4.89509,0 -7.67777,-3.1686 -2.76238,-3.18892 -2.76238,-8.7746 0,-5.606 2.76238,-8.7746 2.78268,-3.16861 7.67777,-3.16861 z"
         style="fill:#ffffff;fill-opacity:1;stroke:#000000;stroke-width:1.43464;stroke-miterlimit:4;stroke-dasharray:none;stroke-opacity:1"
         id="path936" />
      <path
         d="m 319.75067,128.8323 v 13.73063 h -3.73733 v -13.60876 q 0,-3.22954 -1.25931,-4.83415 -1.25932,-1.60461 -3.77796,-1.60461 -3.02642,0 -4.77322,1.9296 -1.74679,1.92959 -1.74679,5.26069 v 12.85723 h -3.75764 v -22.74896 h 3.75764 v 3.53421 q 1.34056,-2.05147 3.14829,-3.06705 1.82804,-1.01558 4.2045,-1.01558 3.92013,0 5.93098,2.43739 2.01084,2.41708 2.01084,7.12936 z"
         style="fill:#ffffff;fill-opacity:1;stroke:#000000;stroke-width:1.43464;stroke-miterlimit:4;stroke-dasharray:none;stroke-opacity:1"
         id="path938" />
    </g>
  </g>
</svg>
